<svg width="42" height="42" viewBox="0 0 42 42" fill="none" xmlns="http://www.w3.org/2000/svg">
<path d="M7.875 20.625C7.875 18.7394 7.875 17.7966 8.46079 17.2108C9.04657 16.625 9.98938 16.625 11.875 16.625H30.125C32.0106 16.625 32.9534 16.625 33.5392 17.2108C34.125 17.7966 34.125 18.7394 34.125 20.625V29.875C34.125 32.7034 34.125 34.1176 33.2463 34.9963C32.3676 35.875 30.9534 35.875 28.125 35.875H13.875C11.0466 35.875 9.63236 35.875 8.75368 34.9963C7.875 34.1176 7.875 32.7034 7.875 29.875V20.625Z" stroke="#222222"/>
<path d="M28.875 16.625V14C28.875 11.3176 28.875 9.9764 28.3737 8.94295C27.8836 7.93245 27.0675 7.11639 26.057 6.62626C25.0236 6.125 23.6824 6.125 21 6.125V6.125C18.3176 6.125 16.9764 6.125 15.943 6.62626C14.9325 7.11639 14.1164 7.93245 13.6263 8.94295C13.125 9.9764 13.125 11.3176 13.125 14V16.625" stroke="#222222" stroke-linecap="round"/>
</svg>
