<svg width="49" height="49" viewBox="0 0 49 49" fill="none" xmlns="http://www.w3.org/2000/svg">
<path d="M14.292 14.5612V8.69554C14.292 6.54964 14.292 5.47669 14.9816 4.87861C15.6712 4.28052 16.7333 4.43226 18.8577 4.73574L37.7239 7.43091C40.18 7.78178 41.4081 7.95722 42.1417 8.80311C42.8753 9.649 42.8753 10.8895 42.8753 13.3706V35.6297C42.8753 38.1108 42.8753 39.3513 42.1417 40.1972C41.4081 41.0431 40.18 41.2185 37.7239 41.5694L18.8577 44.2646C16.7333 44.5681 15.6712 44.7198 14.9816 44.1217C14.292 43.5236 14.292 42.4507 14.292 40.3048V34.8432" stroke="#222222"/>
<path d="M32.667 24.4998L33.0574 24.1875L33.3073 24.4998L33.0574 24.8122L32.667 24.4998ZM8.16699 24.9998C7.89085 24.9998 7.66699 24.776 7.66699 24.4998C7.66699 24.2237 7.89085 23.9998 8.16699 23.9998V24.9998ZM24.8908 13.9792L33.0574 24.1875L32.2766 24.8122L24.1099 14.6039L24.8908 13.9792ZM33.0574 24.8122L24.8908 35.0205L24.1099 34.3958L32.2766 24.1875L33.0574 24.8122ZM32.667 24.9998H8.16699V23.9998H32.667V24.9998Z" fill="#222222"/>
</svg>
