<svg width="52" height="52" viewBox="0 0 52 52" fill="none" xmlns="http://www.w3.org/2000/svg">
<path d="M40.0837 15.1667C40.0837 18.4167 33.5837 20.5833 26.0003 20.5833C18.417 20.5833 11.917 18.4167 11.917 15.1667C11.917 11.9167 18.417 9.75 26.0003 9.75C33.5837 9.75 40.0837 11.9167 40.0837 15.1667Z" stroke="#222222" stroke-linecap="round"/>
<path d="M11.917 15.1665L15.8454 37.7546C16.0405 38.8766 16.1381 39.4376 16.4851 39.8505C16.4951 39.8623 16.5052 39.8741 16.5154 39.8856C16.8719 40.2904 17.4121 40.4704 18.4925 40.8306V40.8306C22.1726 42.0572 24.0126 42.6706 25.9172 42.6838C25.9726 42.6842 26.028 42.6842 26.0834 42.6838C27.9881 42.6706 29.8281 42.0572 33.5081 40.8306V40.8306C34.5885 40.4704 35.1287 40.2904 35.4853 39.8856C35.4955 39.8741 35.5056 39.8623 35.5155 39.8505C35.8626 39.4376 35.9602 38.8766 36.1553 37.7546L40.0837 15.1665" stroke="#222222" stroke-linecap="round"/>
</svg>
